<svg width="22" height="22" viewBox="0 0 22 22" fill="none" xmlns="http://www.w3.org/2000/svg">
<path fill-rule="evenodd" clip-rule="evenodd" d="M10.9991 0.25C6.71886 0.25 3.24906 3.71979 3.24906 8V8.7041C3.24906 9.40102 3.04277 10.0824 2.65619 10.6622L1.50759 12.3851C0.174492 14.3848 1.1922 17.1028 3.51079 17.7351C4.2664 17.9412 5.0284 18.1155 5.7948 18.2581L5.7967 18.2632C6.56569 20.3151 8.62101 21.75 10.999 21.75C13.377 21.75 15.4323 20.3151 16.2013 18.2632L16.2032 18.2581C16.9696 18.1155 17.7317 17.9412 18.4873 17.7351C20.8059 17.1028 21.8236 14.3848 20.4905 12.3851L19.3419 10.6622C18.9554 10.0824 18.7491 9.40102 18.7491 8.7041V8C18.7491 3.71979 15.2793 0.25 10.9991 0.25ZM14.3755 18.537C12.1325 18.805 9.86547 18.8049 7.62251 18.5369C8.33347 19.5585 9.57004 20.25 10.999 20.25C12.428 20.25 13.6645 19.5585 14.3755 18.537ZM4.74906 8C4.74906 4.54822 7.54728 1.75 10.9991 1.75C14.4508 1.75 17.2491 4.54822 17.2491 8V8.7041C17.2491 9.69716 17.543 10.668 18.0939 11.4943L19.2425 13.2172C20.0076 14.3649 19.4235 15.925 18.0927 16.288C13.4484 17.5546 8.54972 17.5546 3.90547 16.288C2.57464 15.925 1.99049 14.3649 2.75566 13.2172L3.90427 11.4943C4.45512 10.668 4.74906 9.69716 4.74906 8.7041V8Z" fill="#4B4E4E" stroke="#4B4E4E" stroke-width="0.3"/>
</svg>
