<svg width="20" height="20" viewBox="0 0 20 20" fill="none" xmlns="http://www.w3.org/2000/svg">
<path fill-rule="evenodd" clip-rule="evenodd" d="M6.32942 3.73888C6.55177 2.64732 7.52313 1.875 8.63601 1.875H11.3588C12.4717 1.875 13.443 2.64732 13.6654 3.73888C13.7167 3.99087 13.945 4.17571 14.1824 4.17571H14.1961L14.2097 4.17631C15.3792 4.22745 16.2775 4.37097 17.0275 4.86298C17.5 5.17297 17.9065 5.57181 18.2232 6.0372C18.6173 6.61622 18.7911 7.28079 18.8744 8.08454C18.9557 8.86983 18.9557 9.85417 18.9557 11.1009V11.1719C18.9557 12.4186 18.9557 13.4029 18.8744 14.1882C18.7911 14.9919 18.6173 15.6565 18.2232 16.2355C17.9065 16.7009 17.5 17.0998 17.0275 17.4097C16.4413 17.7943 15.7692 17.9639 14.9541 18.0453C14.156 18.125 13.1549 18.125 11.8836 18.125H8.1112C6.83988 18.125 5.83878 18.125 5.0407 18.0453C4.22556 17.9639 3.55349 17.7943 2.96727 17.4097C2.49474 17.0998 2.08827 16.7009 1.77155 16.2355C1.37749 15.6565 1.20369 14.9919 1.12041 14.1882C1.03905 13.4029 1.03906 12.4186 1.03906 11.1718V11.1009C1.03906 9.85417 1.03905 8.86983 1.12041 8.08454C1.20369 7.28079 1.37749 6.61622 1.77155 6.0372C2.08827 5.57181 2.49474 5.17297 2.96727 4.86298C3.71725 4.37097 4.61556 4.22745 5.78509 4.17631L5.79873 4.17571H5.81239C6.0498 4.17571 6.27809 3.99087 6.32942 3.73888ZM8.63601 3.125C8.10175 3.125 7.65494 3.49416 7.55426 3.98839C7.39121 4.78883 6.68156 5.41822 5.82767 5.42565C4.70383 5.47558 4.10186 5.61363 3.65293 5.90815C3.31664 6.12876 3.02866 6.41175 2.80495 6.74047C2.57482 7.07862 2.43653 7.51104 2.36376 8.21337C2.28985 8.92672 2.28906 9.84633 2.28906 11.1364C2.28906 12.4264 2.28985 13.346 2.36376 14.0594C2.43653 14.7617 2.57482 15.1941 2.80495 15.5323C3.02866 15.861 3.31664 16.144 3.65293 16.3646C4.00087 16.5928 4.4461 16.7297 5.16493 16.8015C5.89363 16.8743 6.83234 16.875 8.14554 16.875H11.8492C13.1625 16.875 14.1012 16.8743 14.8299 16.8015C15.5487 16.7297 15.9939 16.5928 16.3419 16.3646C16.6782 16.144 16.9661 15.861 17.1898 15.5323C17.42 15.1941 17.5583 14.7617 17.631 14.0594C17.7049 13.346 17.7057 12.4264 17.7057 11.1364C17.7057 9.84633 17.7049 8.92672 17.631 8.21337C17.5583 7.51104 17.42 7.07862 17.1898 6.74047C16.9661 6.41175 16.6782 6.12876 16.3419 5.90815C15.8929 5.61363 15.291 5.47558 14.1671 5.42565C13.3132 5.41822 12.6036 4.78883 12.4405 3.98839C12.3399 3.49416 11.893 3.125 11.3588 3.125H8.63601ZM9.9974 8.95833C8.96186 8.95833 8.1224 9.7978 8.1224 10.8333C8.1224 11.8689 8.96186 12.7083 9.9974 12.7083C11.0329 12.7083 11.8724 11.8689 11.8724 10.8333C11.8724 9.7978 11.0329 8.95833 9.9974 8.95833ZM6.8724 10.8333C6.8724 9.10744 8.27151 7.70833 9.9974 7.70833C11.7233 7.70833 13.1224 9.10744 13.1224 10.8333C13.1224 12.5592 11.7233 13.9583 9.9974 13.9583C8.27151 13.9583 6.8724 12.5592 6.8724 10.8333ZM14.3724 8.33333C14.3724 7.98816 14.6522 7.70833 14.9974 7.70833H15.8307C16.1759 7.70833 16.4557 7.98816 16.4557 8.33333C16.4557 8.67851 16.1759 8.95833 15.8307 8.95833H14.9974C14.6522 8.95833 14.3724 8.67851 14.3724 8.33333Z" fill="#4B4E4E"/>
<path d="M13.6654 3.73888C13.443 2.64732 12.4717 1.875 11.3588 1.875H8.63601C7.52313 1.875 6.55177 2.64732 6.32942 3.73888C6.27809 3.99087 6.0498 4.17571 5.81239 4.17571H5.79873L5.78509 4.17631C4.61556 4.22745 3.71725 4.37097 2.96727 4.86298M13.6654 3.73888L13.053 3.86364M13.6654 3.73888C13.7167 3.99087 13.945 4.17571 14.1824 4.17571H14.1961L14.2097 4.17631C15.3792 4.22745 16.2775 4.37097 17.0275 4.86298C17.5 5.17297 17.9065 5.57181 18.2232 6.0372C18.6173 6.61622 18.7911 7.28079 18.8744 8.08454C18.9557 8.86983 18.9557 9.85417 18.9557 11.1009V11.1719C18.9557 12.4186 18.9557 13.4029 18.8744 14.1882C18.7911 14.9919 18.6173 15.6565 18.2232 16.2355C17.9065 16.7009 17.5 17.0998 17.0275 17.4097C16.4413 17.7943 15.7692 17.9639 14.9541 18.0453C14.156 18.125 13.1549 18.125 11.8836 18.125H8.1112C6.83988 18.125 5.83878 18.125 5.0407 18.0453C4.22556 17.9639 3.55349 17.7943 2.96727 17.4097M2.96727 17.4097L3.3101 16.8872M2.96727 17.4097C2.49474 17.0998 2.08827 16.7009 1.77155 16.2355C1.37749 15.6565 1.20369 14.9919 1.12041 14.1882C1.03905 13.4029 1.03906 12.4186 1.03906 11.1718V11.1009C1.03906 9.85417 1.03905 8.86983 1.12041 8.08454C1.20369 7.28079 1.37749 6.61622 1.77155 6.0372C2.08827 5.57181 2.49474 5.17297 2.96727 4.86298M2.96727 4.86298L3.3101 5.38556M7.55426 3.98839C7.65494 3.49416 8.10175 3.125 8.63601 3.125H11.3588C11.893 3.125 12.3399 3.49416 12.4405 3.98839C12.6036 4.78883 13.3132 5.41822 14.1671 5.42565C15.291 5.47558 15.8929 5.61363 16.3419 5.90815C16.6782 6.12876 16.9661 6.41175 17.1898 6.74047C17.42 7.07862 17.5583 7.51104 17.631 8.21337C17.7049 8.92672 17.7057 9.84634 17.7057 11.1364C17.7057 12.4264 17.7049 13.346 17.631 14.0594C17.5583 14.7617 17.42 15.1941 17.1898 15.5323C16.9661 15.861 16.6782 16.144 16.3419 16.3646C15.9939 16.5928 15.5487 16.7297 14.8299 16.8015C14.1012 16.8743 13.1625 16.875 11.8492 16.875H8.14554C6.83234 16.875 5.89363 16.8743 5.16493 16.8015C4.4461 16.7297 4.00087 16.5928 3.65293 16.3646C3.31664 16.144 3.02866 15.861 2.80495 15.5323C2.57482 15.1941 2.43653 14.7617 2.36376 14.0594C2.28985 13.346 2.28906 12.4264 2.28906 11.1364C2.28906 9.84634 2.28985 8.92672 2.36376 8.21337C2.43653 7.51104 2.57482 7.07862 2.80495 6.74047C3.02866 6.41175 3.31664 6.12876 3.65293 5.90815C4.10186 5.61363 4.70383 5.47558 5.82767 5.42565C6.68156 5.41822 7.39121 4.78883 7.55426 3.98839ZM8.1224 10.8333C8.1224 9.7978 8.96186 8.95833 9.9974 8.95833C11.0329 8.95833 11.8724 9.7978 11.8724 10.8333C11.8724 11.8689 11.0329 12.7083 9.9974 12.7083C8.96186 12.7083 8.1224 11.8689 8.1224 10.8333ZM9.9974 7.70833C8.27151 7.70833 6.8724 9.10744 6.8724 10.8333C6.8724 12.5592 8.27151 13.9583 9.9974 13.9583C11.7233 13.9583 13.1224 12.5592 13.1224 10.8333C13.1224 9.10744 11.7233 7.70833 9.9974 7.70833ZM14.9974 7.70833C14.6522 7.70833 14.3724 7.98816 14.3724 8.33333C14.3724 8.67851 14.6522 8.95833 14.9974 8.95833H15.8307C16.1759 8.95833 16.4557 8.67851 16.4557 8.33333C16.4557 7.98816 16.1759 7.70833 15.8307 7.70833H14.9974Z" stroke="#4B4E4E" stroke-width="0.3"/>
</svg>
