<svg width="38" height="38" viewBox="0 0 38 38" fill="none" xmlns="http://www.w3.org/2000/svg">
<circle cx="19" cy="19" r="19" fill="white"/>
<path fill-rule="evenodd" clip-rule="evenodd" d="M20.4896 1.38684C21.3238 1.46012 21.9412 2.1949 21.8686 3.02802L21.5822 6.31544C21.5201 7.02832 20.9729 7.5822 20.2937 7.68131C20.2062 7.78983 20.102 7.88795 19.9818 7.97176C19.2977 8.44858 18.3538 8.2815 17.8735 7.59856L15.9635 4.88305C15.4831 4.20011 15.6483 3.25994 16.3323 2.78312C17.0163 2.3063 17.9602 2.47338 18.4406 3.15632L18.7724 3.62801L18.8477 2.76263C18.9203 1.92952 19.6554 1.31355 20.4896 1.38684Z" fill="#347B72"/>
<circle cx="19" cy="19" r="15" fill="white"/>
<ellipse cx="9.27059" cy="25.1635" rx="2.27059" ry="2.26111" fill="#FFC6AD" fill-opacity="0.13"/>
<ellipse cx="28.3409" cy="25.1635" rx="2.27059" ry="2.26111" fill="#FFC6AD" fill-opacity="0.13"/>
<ellipse cx="1.96785" cy="1.95963" rx="1.96785" ry="1.95963" transform="matrix(-1 0 0 1 13.9688 18.6826)" fill="#282828"/>
<ellipse cx="0.454119" cy="0.452222" rx="0.454119" ry="0.452222" transform="matrix(-1 0 0 1 13.3594 19.5869)" fill="white"/>
<ellipse cx="1.96785" cy="1.95963" rx="1.96785" ry="1.95963" transform="matrix(-1 0 0 1 27.5859 18.6826)" fill="#282828"/>
<ellipse cx="0.454119" cy="0.452222" rx="0.454119" ry="0.452222" transform="matrix(-1 0 0 1 26.9766 19.5869)" fill="white"/>
<path d="M21.8303 25.9929C21.8303 25.1188 20.5426 24.4101 18.9542 24.4101C17.3658 24.4101 16.0781 25.1188 16.0781 25.9929C16.0781 26.867 17.3658 28.6309 18.9542 28.6309C20.5426 28.6309 21.8303 26.867 21.8303 25.9929Z" fill="#F0C802"/>
<path d="M22.1389 25.0886C22.1389 24.2145 20.7157 23.5058 18.9601 23.5058C17.2045 23.5058 15.7812 24.2145 15.7812 25.0886C15.7812 25.9627 17.2045 27.7266 18.9601 27.7266C20.7157 27.7266 22.1389 25.9627 22.1389 25.0886Z" fill="#FED402"/>
<path fill-rule="evenodd" clip-rule="evenodd" d="M19.0117 14.8725C20.7913 13.368 22.9255 12.6029 25.1027 12.8907C29.9763 13.5351 33.2407 19.2135 32.4608 25.6262C33.4463 23.628 34 21.3787 34 19C34 10.7157 27.2843 4 19 4C10.7157 4 4 10.7157 4 19C4 21.4037 4.56537 23.6753 5.57038 25.6891C4.76144 19.2507 8.0312 13.5372 12.9207 12.8907C15.098 12.6029 17.2321 13.368 19.0117 14.8725Z" fill="#347B72"/>
</svg>
