<svg width="20" height="20" viewBox="0 0 20 20" fill="black" xmlns="http://www.w3.org/2000/svg">
<path fill-rule="evenodd" clip-rule="evenodd" d="M5.21094 6.66667C5.21094 4.0203 7.35624 1.875 10.0026 1.875C12.649 1.875 14.7943 4.0203 14.7943 6.66667V9.16667C14.7943 11.813 12.649 13.9583 10.0026 13.9583C7.35624 13.9583 5.21094 11.813 5.21094 9.16667V6.66667ZM10.0026 3.125C8.0466 3.125 6.46094 4.71066 6.46094 6.66667V9.16667C6.46094 11.1227 8.0466 12.7083 10.0026 12.7083C11.9586 12.7083 13.5443 11.1227 13.5443 9.16667V6.66667C13.5443 4.71066 11.9586 3.125 10.0026 3.125ZM8.54427 6.66667C8.54427 6.32149 8.82409 6.04167 9.16927 6.04167H10.8359C11.1811 6.04167 11.4609 6.32149 11.4609 6.66667C11.4609 7.01185 11.1811 7.29167 10.8359 7.29167H9.16927C8.82409 7.29167 8.54427 7.01185 8.54427 6.66667ZM3.33594 7.70833C3.68112 7.70833 3.96094 7.98816 3.96094 8.33333V9.16667C3.96094 12.5034 6.66588 15.2083 10.0026 15.2083C13.3393 15.2083 16.0443 12.5034 16.0443 9.16667V8.33333C16.0443 7.98816 16.3241 7.70833 16.6693 7.70833C17.0144 7.70833 17.2943 7.98816 17.2943 8.33333V9.16667C17.2943 12.9832 14.3621 16.1149 10.6276 16.4319V18.3333C10.6276 18.6785 10.3478 18.9583 10.0026 18.9583C9.65743 18.9583 9.3776 18.6785 9.3776 18.3333V16.4319C5.6431 16.1149 2.71094 12.9832 2.71094 9.16667V8.33333C2.71094 7.98816 2.99076 7.70833 3.33594 7.70833ZM7.71094 9.16667C7.71094 8.82149 7.99076 8.54167 8.33594 8.54167H11.6693C12.0144 8.54167 12.2943 8.82149 12.2943 9.16667C12.2943 9.51184 12.0144 9.79167 11.6693 9.79167H8.33594C7.99076 9.79167 7.71094 9.51184 7.71094 9.16667Z" fill="#4B4E4E" stroke="#4B4E4E" stroke-width="0.3" stroke-linecap="round"/>
</svg>



