<svg width="16" height="16" viewBox="0 0 16 16" fill="none" xmlns="http://www.w3.org/2000/svg">
<path fill-rule="evenodd" clip-rule="evenodd" d="M9.54747 2.50011C9.47801 2.50002 9.40583 2.5 9.33077 2.5L6.6641 2.5C6.58905 2.5 6.51687 2.50002 6.4474 2.50011C6.24854 3.47959 5.47702 4.2511 4.49755 4.44997C4.49745 4.51943 4.49744 4.59161 4.49744 4.66667C4.49744 4.74172 4.49745 4.8139 4.49755 4.88337C5.47702 5.08224 6.24854 5.85375 6.4474 6.83323C6.51687 6.83332 6.58905 6.83333 6.6641 6.83333H9.33077C9.40583 6.83333 9.478 6.83332 9.54747 6.83323C9.74634 5.85375 10.5179 5.08224 11.4973 4.88337C11.4974 4.81391 11.4974 4.74173 11.4974 4.66667C11.4974 4.59161 11.4974 4.51943 11.4973 4.44997C10.5178 4.2511 9.74634 3.47959 9.54747 2.50011ZM9.95045 1.50218C9.76742 1.49999 9.57236 1.49999 9.36544 1.5L6.62944 1.5C6.42251 1.49999 6.22746 1.49999 6.04442 1.50218C6.02895 1.50074 6.01328 1.5 5.99744 1.5C5.97651 1.5 5.95588 1.50129 5.93562 1.50378C5.63377 1.50914 5.36648 1.52208 5.13445 1.55328C4.71592 1.60955 4.33805 1.73333 4.03441 2.03697C3.73076 2.34062 3.60698 2.71849 3.55071 3.13702C3.51951 3.36905 3.50658 3.63634 3.50122 3.93819C3.49872 3.95844 3.49744 3.97907 3.49744 4C3.49744 4.01585 3.49817 4.03152 3.49961 4.04699C3.49742 4.23002 3.49743 4.42507 3.49744 4.632V4.70133C3.49743 4.90826 3.49742 5.10331 3.49961 5.28635C3.49817 5.30182 3.49744 5.31749 3.49744 5.33333C3.49744 5.35426 3.49872 5.37489 3.50122 5.39515C3.50658 5.697 3.51951 5.96429 3.55071 6.19632C3.60698 6.61485 3.73076 6.99272 4.03441 7.29636C4.33805 7.60001 4.71592 7.72379 5.13445 7.78006C5.36648 7.81126 5.63377 7.82419 5.93563 7.82955C5.95588 7.83205 5.97651 7.83333 5.99744 7.83333C6.01328 7.83333 6.02895 7.8326 6.04442 7.83116C6.22746 7.83335 6.42251 7.83334 6.62944 7.83334H9.36547C9.57238 7.83334 9.76743 7.83335 9.95045 7.83116C9.96592 7.8326 9.98159 7.83333 9.99744 7.83333C10.0184 7.83333 10.039 7.83205 10.0592 7.82955C10.3611 7.82419 10.6284 7.81126 10.8604 7.78006C11.279 7.72379 11.6568 7.60001 11.9605 7.29636C12.2641 6.99272 12.3879 6.61485 12.4442 6.19632C12.4754 5.96429 12.4883 5.697 12.4937 5.39515C12.4962 5.37489 12.4974 5.35426 12.4974 5.33333C12.4974 5.31749 12.4967 5.30182 12.4953 5.28635C12.4975 5.10332 12.4974 4.90826 12.4974 4.70133V4.63201C12.4974 4.42508 12.4975 4.23002 12.4953 4.04699C12.4967 4.03152 12.4974 4.01585 12.4974 4C12.4974 3.97907 12.4962 3.95844 12.4937 3.93819C12.4883 3.63634 12.4754 3.36905 12.4442 3.13701C12.3879 2.71849 12.2641 2.34062 11.9605 2.03697C11.6568 1.73333 11.279 1.60955 10.8604 1.55328C10.6284 1.52208 10.3611 1.50914 10.0592 1.50378C10.039 1.50129 10.0184 1.5 9.99744 1.5C9.98159 1.5 9.96592 1.50074 9.95045 1.50218ZM10.5935 2.52931C10.7454 2.93195 11.0655 3.25207 11.4681 3.40394C11.4638 3.35731 11.4588 3.31283 11.4531 3.27026C11.4117 2.96262 11.3402 2.83096 11.2534 2.74408C11.1665 2.6572 11.0348 2.58572 10.7272 2.54436C10.6846 2.53864 10.6401 2.53365 10.5935 2.52931ZM11.4681 5.92939C11.0655 6.08127 10.7454 6.40139 10.5935 6.80403C10.6401 6.79968 10.6846 6.7947 10.7272 6.78898C11.0348 6.74762 11.1665 6.67613 11.2534 6.58926C11.3402 6.50238 11.4117 6.37071 11.4531 6.06307C11.4588 6.02051 11.4638 5.97603 11.4681 5.92939ZM5.40138 6.80403C5.2495 6.40139 4.92938 6.08127 4.52674 5.92939C4.53109 5.97603 4.53607 6.02051 4.54179 6.06307C4.58315 6.37071 4.65464 6.50238 4.74151 6.58926C4.82839 6.67613 4.96006 6.74762 5.2677 6.78898C5.31026 6.7947 5.35475 6.79969 5.40138 6.80403ZM4.52674 3.40394C4.92938 3.25207 5.2495 2.93195 5.40138 2.52931C5.35474 2.53365 5.31026 2.53864 5.2677 2.54436C4.96006 2.58572 4.82839 2.6572 4.74151 2.74408C4.65464 2.83096 4.58315 2.96262 4.54179 3.27026C4.53607 3.31283 4.53109 3.35731 4.52674 3.40394ZM7.99744 4.5C7.90539 4.5 7.83077 4.57462 7.83077 4.66667C7.83077 4.75872 7.90539 4.83333 7.99744 4.83333C8.08948 4.83333 8.1641 4.75872 8.1641 4.66667C8.1641 4.57462 8.08948 4.5 7.99744 4.5ZM6.83077 4.66667C6.83077 4.02234 7.3531 3.5 7.99744 3.5C8.64177 3.5 9.1641 4.02234 9.1641 4.66667C9.1641 5.311 8.64177 5.83333 7.99744 5.83333C7.3531 5.83333 6.83077 5.311 6.83077 4.66667ZM5.78671 9.63211C7.03059 9.39112 8.36215 9.44521 9.4396 10.0878C9.59095 10.1781 9.7328 10.2906 9.85658 10.4296C10.1072 10.7111 10.2366 11.0609 10.2427 11.4116C10.3702 11.3294 10.4979 11.238 10.6277 11.14L11.8325 10.2299C12.4355 9.77433 13.3119 9.77426 13.9151 10.2297C14.4724 10.6505 14.6946 11.4057 14.2956 12.0452C14.0121 12.4997 13.585 13.1283 13.1505 13.5308C12.7112 13.9376 12.086 14.2797 11.6131 14.508C11.0388 14.7852 10.4185 14.9384 9.8153 15.0361C8.5825 15.2356 7.29972 15.2051 6.08076 14.954C5.45783 14.8256 4.81047 14.7589 4.17073 14.7589H2.6641C2.38796 14.7589 2.1641 14.5351 2.1641 14.2589C2.1641 13.9828 2.38796 13.7589 2.6641 13.7589H4.17073C4.8788 13.7589 5.59376 13.8326 6.28255 13.9745C7.38391 14.2014 8.54417 14.2288 9.6555 14.0489C10.2081 13.9595 10.7242 13.8267 11.1784 13.6074C11.634 13.3875 12.1463 13.0978 12.471 12.7971C12.7993 12.493 13.1668 11.9653 13.4472 11.5158C13.5318 11.3802 13.5201 11.1845 13.3125 11.0277C13.066 10.8416 12.6816 10.8417 12.4352 11.0278L11.2304 11.9379C10.7495 12.3012 10.1575 12.6899 9.42324 12.807C9.34915 12.8189 9.27199 12.8297 9.19191 12.8392C9.15372 12.8461 9.11397 12.8507 9.0729 12.8522C8.69803 12.8894 8.26391 12.8981 7.78494 12.8529C7.51002 12.8269 7.3082 12.583 7.33416 12.3081C7.36012 12.0332 7.60403 11.8313 7.87895 11.8573C8.29724 11.8968 8.67252 11.8881 8.99091 11.8554C8.99737 11.8547 9.00381 11.8541 9.01022 11.8534C9.02352 11.8456 9.04383 11.8316 9.07049 11.8083C9.28347 11.6224 9.30249 11.3111 9.10969 11.0946C9.06082 11.0397 9.00064 10.9904 8.92735 10.9467C8.13992 10.477 7.08826 10.3985 5.97691 10.6139C4.87189 10.8279 3.77404 11.3211 2.95334 11.9031C2.72809 12.0629 2.41599 12.0098 2.25625 11.7845C2.09651 11.5593 2.14962 11.2472 2.37487 11.0874C3.30711 10.4263 4.5365 9.87432 5.78671 9.63211Z" fill="white"/>
</svg>
