<svg width="16" height="16" viewBox="0 0 16 16" fill="none" xmlns="http://www.w3.org/2000/svg">
<path fill-rule="evenodd" clip-rule="evenodd" d="M1.95645 7.46687C2.00423 4.15979 4.72006 1.5 8.05518 1.5C10.2608 1.5 12.194 2.66285 13.2649 4.40481C13.4095 4.64005 13.336 4.94799 13.1008 5.09261C12.8655 5.23723 12.5576 5.16377 12.413 4.92853C11.5177 3.4723 9.90154 2.5 8.05518 2.5C5.26561 2.5 3.00508 4.71847 2.95661 7.46545L3.22352 7.20062C3.41955 7.00612 3.73613 7.00737 3.93063 7.20339C4.12512 7.39942 4.12388 7.716 3.92785 7.9105L2.80797 9.02161C2.61303 9.21502 2.29859 9.21502 2.10365 9.02161L0.983776 7.9105C0.787748 7.716 0.786504 7.39942 0.980998 7.20339C1.17549 7.00737 1.49207 7.00612 1.6881 7.20062L1.95645 7.46687ZM13.1936 6.97772C13.3883 6.7852 13.7017 6.7852 13.8965 6.97772L15.0207 8.08883C15.2171 8.28295 15.2189 8.59953 15.0248 8.79593C14.8307 8.99233 14.5141 8.99417 14.3177 8.80005L14.0444 8.52996C13.9982 11.8402 11.2704 14.5 7.92426 14.5C5.7118 14.5 3.77181 13.338 2.69673 11.5959C2.55171 11.3609 2.62465 11.0529 2.85965 10.9078C3.09464 10.7628 3.40271 10.8358 3.54773 11.0707C4.44634 12.5269 6.06926 13.5 7.92426 13.5C10.7284 13.5 12.9974 11.278 13.0443 8.53128L12.7724 8.80005C12.576 8.99417 12.2594 8.99233 12.0653 8.79593C11.8712 8.59953 11.873 8.28295 12.0694 8.08883L13.1936 6.97772Z" fill="white"/>
</svg>
