<svg width="20" height="20" viewBox="0 0 20 20" fill="none" xmlns="http://www.w3.org/2000/svg">
<g clip-path="url(#clip0_6509_47893)">
<path fill-rule="evenodd" clip-rule="evenodd" d="M9.58073 2.29199C5.55365 2.29199 2.28906 5.55658 2.28906 9.58366C2.28906 13.6107 5.55365 16.8753 9.58073 16.8753C13.6078 16.8753 16.8724 13.6107 16.8724 9.58366C16.8724 5.55658 13.6078 2.29199 9.58073 2.29199ZM1.03906 9.58366C1.03906 4.86623 4.8633 1.04199 9.58073 1.04199C14.2982 1.04199 18.1224 4.86623 18.1224 9.58366C18.1224 11.7174 17.34 13.6684 16.0465 15.1655L18.7727 17.8917C19.0167 18.1358 19.0167 18.5315 18.7727 18.7756C18.5286 19.0197 18.1329 19.0197 17.8888 18.7756L15.1626 16.0494C13.6655 17.3429 11.7145 18.1253 9.58073 18.1253C4.8633 18.1253 1.03906 14.3011 1.03906 9.58366Z" fill="#4B4E4E" stroke="#4B4E4E" stroke-width="0.3" stroke-linecap="round"/>
</g>
<defs>
<clipPath id="clip0_6509_47893">
<rect width="20" height="20" fill="white"/>
</clipPath>
</defs>
</svg>
