<svg width="10" height="14" viewBox="0 0 10 14" fill="none" xmlns="http://www.w3.org/2000/svg">
<path fill-rule="evenodd" clip-rule="evenodd" d="M0.429204 0.692468C0.691283 0.467829 1.08585 0.49818 1.31048 0.760259L6.31048 6.59359C6.5111 6.82765 6.5111 7.17302 6.31048 7.40708L1.31048 13.2404C1.08585 13.5025 0.691283 13.5328 0.429204 13.3082C0.167126 13.0836 0.136775 12.689 0.361414 12.4269L5.01278 7.00034L0.361414 1.57375C0.136775 1.31167 0.167126 0.917107 0.429204 0.692468ZM3.7627 0.692555C4.02478 0.467916 4.41934 0.498267 4.64398 0.760345L9.64398 6.59368C9.8446 6.82773 9.8446 7.17311 9.64398 7.40717L4.64398 13.2405C4.41934 13.5026 4.02478 13.5329 3.7627 13.3083C3.50062 13.0837 3.47027 12.6891 3.69491 12.427L8.34627 7.00042L3.69491 1.57383C3.47027 1.31176 3.50062 0.917194 3.7627 0.692555Z" fill="#3D8F84"/>
</svg>
