<svg width="16" height="20" viewBox="0 0 16 20" fill="none" xmlns="http://www.w3.org/2000/svg">
<path fill-rule="evenodd" clip-rule="evenodd" d="M8.00272 1.04199C5.81659 1.04199 4.04438 2.8142 4.04438 5.00033C4.04438 7.18645 5.81659 8.95866 8.00272 8.95866C10.1888 8.95866 11.961 7.18645 11.961 5.00033C11.961 2.8142 10.1888 1.04199 8.00272 1.04199ZM5.29438 5.00033C5.29438 3.50455 6.50694 2.29199 8.00272 2.29199C9.49849 2.29199 10.711 3.50455 10.711 5.00033C10.711 6.4961 9.49849 7.70866 8.00272 7.70866C6.50694 7.70866 5.29438 6.4961 5.29438 5.00033Z" fill="#3D8F84"/>
<path fill-rule="evenodd" clip-rule="evenodd" d="M8.00272 10.2087C6.07476 10.2087 4.29849 10.6469 2.98226 11.3873C1.68562 12.1166 0.711049 13.222 0.711049 14.5837L0.710994 14.6686C0.710053 15.6368 0.708871 16.852 1.77473 17.7199C2.29928 18.1471 3.03311 18.4509 4.02456 18.6515C5.01877 18.8528 6.31457 18.9587 8.00272 18.9587C9.69086 18.9587 10.9867 18.8528 11.9809 18.6515C12.9723 18.4509 13.7061 18.1471 14.2307 17.7199C15.2966 16.852 15.2954 15.6368 15.2944 14.6686L15.2944 14.5837C15.2944 13.222 14.3198 12.1166 13.0232 11.3873C11.7069 10.6469 9.93068 10.2087 8.00272 10.2087ZM1.96105 14.5837C1.96105 13.8742 2.47886 13.1046 3.59508 12.4767C4.69171 11.8599 6.24878 11.4587 8.00272 11.4587C9.75666 11.4587 11.3137 11.8599 12.4103 12.4767C13.5266 13.1046 14.0444 13.8742 14.0444 14.5837C14.0444 15.6735 14.0108 16.287 13.4414 16.7507C13.1326 17.0021 12.6164 17.2475 11.7329 17.4264C10.8521 17.6047 9.6479 17.7087 8.00272 17.7087C6.35753 17.7087 5.15333 17.6047 4.27254 17.4264C3.38899 17.2475 2.87281 17.0021 2.56404 16.7507C1.99465 16.287 1.96105 15.6735 1.96105 14.5837Z" fill="#3D8F84"/>
<path fill-rule="evenodd" clip-rule="evenodd" d="M8.00272 1.04199C5.81659 1.04199 4.04438 2.8142 4.04438 5.00033C4.04438 7.18645 5.81659 8.95866 8.00272 8.95866C10.1888 8.95866 11.961 7.18645 11.961 5.00033C11.961 2.8142 10.1888 1.04199 8.00272 1.04199ZM5.29438 5.00033C5.29438 3.50455 6.50694 2.29199 8.00272 2.29199C9.49849 2.29199 10.711 3.50455 10.711 5.00033C10.711 6.4961 9.49849 7.70866 8.00272 7.70866C6.50694 7.70866 5.29438 6.4961 5.29438 5.00033Z" stroke="#3D8F84" stroke-width="0.3"/>
<path fill-rule="evenodd" clip-rule="evenodd" d="M8.00272 10.2087C6.07476 10.2087 4.29849 10.6469 2.98226 11.3873C1.68562 12.1166 0.711049 13.222 0.711049 14.5837L0.710994 14.6686C0.710053 15.6368 0.708871 16.852 1.77473 17.7199C2.29928 18.1471 3.03311 18.4509 4.02456 18.6515C5.01877 18.8528 6.31457 18.9587 8.00272 18.9587C9.69086 18.9587 10.9867 18.8528 11.9809 18.6515C12.9723 18.4509 13.7061 18.1471 14.2307 17.7199C15.2966 16.852 15.2954 15.6368 15.2944 14.6686L15.2944 14.5837C15.2944 13.222 14.3198 12.1166 13.0232 11.3873C11.7069 10.6469 9.93068 10.2087 8.00272 10.2087ZM1.96105 14.5837C1.96105 13.8742 2.47886 13.1046 3.59508 12.4767C4.69171 11.8599 6.24878 11.4587 8.00272 11.4587C9.75666 11.4587 11.3137 11.8599 12.4103 12.4767C13.5266 13.1046 14.0444 13.8742 14.0444 14.5837C14.0444 15.6735 14.0108 16.287 13.4414 16.7507C13.1326 17.0021 12.6164 17.2475 11.7329 17.4264C10.8521 17.6047 9.6479 17.7087 8.00272 17.7087C6.35753 17.7087 5.15333 17.6047 4.27254 17.4264C3.38899 17.2475 2.87281 17.0021 2.56404 16.7507C1.99465 16.287 1.96105 15.6735 1.96105 14.5837Z" stroke="#3D8F84" stroke-width="0.3"/>
</svg>
