<svg width="14" height="14" viewBox="0 0 14 14" fill="none" xmlns="http://www.w3.org/2000/svg">
<path fill-rule="evenodd" clip-rule="evenodd" d="M6.065 0.545562C6.65795 0.262156 7.34726 0.262156 7.94021 0.545562C8.1978 0.668684 8.43384 0.870016 8.76067 1.14879C8.77763 1.16326 8.79484 1.17794 8.81231 1.19282C8.97103 1.32809 9.02102 1.36968 9.07159 1.40358C9.20024 1.4898 9.34471 1.54964 9.49665 1.57964C9.55638 1.59143 9.62114 1.59737 9.82902 1.61396C9.85189 1.61578 9.87444 1.61757 9.89667 1.61934C10.3249 1.65332 10.6342 1.67786 10.9034 1.77295C11.523 1.99182 12.0105 2.47924 12.2293 3.09891C12.3244 3.36812 12.349 3.67738 12.3829 4.10561C12.3847 4.12784 12.3865 4.15039 12.3883 4.17326C12.4049 4.38114 12.4108 4.4459 12.4226 4.50563C12.4526 4.65757 12.5125 4.80204 12.5987 4.93069C12.6326 4.98127 12.6742 5.03125 12.8095 5.18997C12.8243 5.20745 12.839 5.22466 12.8535 5.24163C13.1323 5.56845 13.3336 5.80448 13.4567 6.06208C13.7401 6.65502 13.7401 7.34433 13.4567 7.93728C13.3336 8.19487 13.1323 8.4309 12.8535 8.75772C12.839 8.77469 12.8243 8.7919 12.8095 8.80938C12.6742 8.9681 12.6326 9.01809 12.5987 9.06866C12.5125 9.19731 12.4526 9.34178 12.4226 9.49372C12.4108 9.55345 12.4049 9.61821 12.3883 9.82609C12.3865 9.84897 12.3847 9.87151 12.3829 9.89374C12.349 10.322 12.3244 10.6312 12.2293 10.9004C12.0105 11.5201 11.523 12.0075 10.9034 12.2264C10.6342 12.3215 10.3249 12.346 9.89667 12.38C9.87444 12.3818 9.85189 12.3836 9.82901 12.3854C9.62114 12.402 9.55639 12.4079 9.49665 12.4197C9.34471 12.4497 9.20024 12.5096 9.07159 12.5958C9.02102 12.6297 8.97103 12.6713 8.81231 12.8065C8.79484 12.8214 8.77762 12.8361 8.76066 12.8506C8.43383 13.1293 8.1978 13.3307 7.94021 13.4538C7.34726 13.7372 6.65795 13.7372 6.06501 13.4538C5.80741 13.3307 5.57137 13.1293 5.24454 12.8506C5.22758 12.8361 5.21037 12.8214 5.1929 12.8065C5.03418 12.6713 4.98419 12.6297 4.93362 12.5958C4.80497 12.5096 4.6605 12.4497 4.50856 12.4197C4.44883 12.4079 4.38407 12.402 4.17619 12.3854C4.15332 12.3836 4.13077 12.3818 4.10854 12.38C3.68031 12.346 3.37105 12.3215 3.10184 12.2264C2.48217 12.0075 1.99475 11.5201 1.77587 10.9004C1.68079 10.6312 1.65625 10.322 1.62227 9.89374C1.6205 9.87151 1.61871 9.84896 1.61689 9.82609C1.6003 9.61821 1.59436 9.55345 1.58257 9.49372C1.55257 9.34178 1.49273 9.19731 1.40651 9.06866C1.37261 9.01809 1.33102 8.9681 1.19575 8.80938C1.18087 8.79191 1.16619 8.7747 1.15172 8.75774C0.872946 8.43091 0.671614 8.19487 0.548492 7.93728C0.265086 7.34433 0.265086 6.65502 0.548492 6.06208C0.671613 5.80448 0.872944 5.56844 1.15172 5.24162C1.16619 5.22465 1.18087 5.20744 1.19575 5.18997C1.33102 5.03125 1.37261 4.98127 1.40651 4.93069C1.49273 4.80204 1.55257 4.65757 1.58257 4.50563C1.59436 4.4459 1.6003 4.38114 1.61689 4.17326C1.61871 4.15039 1.6205 4.12784 1.62227 4.10561C1.65625 3.67739 1.68079 3.36812 1.77587 3.09891C1.99475 2.47924 2.48217 1.99182 3.10184 1.77295C3.37105 1.67786 3.68031 1.65332 4.10854 1.61934C4.13077 1.61757 4.15332 1.61578 4.17619 1.61396C4.38407 1.59737 4.44883 1.59143 4.50856 1.57964C4.6605 1.54964 4.80497 1.4898 4.93362 1.40358C4.9842 1.36968 5.03418 1.32809 5.1929 1.19282C5.21037 1.17794 5.22758 1.16326 5.24455 1.14879C5.57137 0.870015 5.80741 0.668684 6.065 0.545562ZM7.50747 1.45094C7.18819 1.29833 6.81702 1.29833 6.49774 1.45094C6.37431 1.50994 6.24419 1.61535 5.84378 1.95659C5.8372 1.96219 5.83071 1.96772 5.82431 1.97318C5.6929 2.08521 5.59698 2.16699 5.49231 2.23714C5.2534 2.39727 4.98509 2.50841 4.70292 2.56411C4.57931 2.58852 4.45365 2.59852 4.28152 2.61223C4.27313 2.61289 4.26463 2.61357 4.25602 2.61426C3.73159 2.65611 3.56505 2.67357 3.43605 2.71913C3.10238 2.83699 2.83992 3.09945 2.72206 3.43312C2.6765 3.56212 2.65904 3.72866 2.61719 4.25309C2.6165 4.2617 2.61582 4.2702 2.61516 4.27859C2.60145 4.45072 2.59145 4.57638 2.56704 4.69999C2.51134 4.98216 2.4002 5.25047 2.24007 5.48938C2.16992 5.59405 2.08814 5.68997 1.97611 5.82138C1.97065 5.82779 1.96512 5.83427 1.95952 5.84085C1.61828 6.24127 1.51287 6.37138 1.45387 6.49481C1.30126 6.81409 1.30126 7.18526 1.45387 7.50454C1.51287 7.62797 1.61828 7.75809 1.95952 8.1585C1.96512 8.16508 1.97065 8.17157 1.97611 8.17797C2.08814 8.30938 2.16992 8.4053 2.24007 8.50997C2.4002 8.74888 2.51134 9.01719 2.56704 9.29936C2.59145 9.42297 2.60145 9.54863 2.61516 9.72077C2.61582 9.72915 2.6165 9.73765 2.61719 9.74626C2.65904 10.2707 2.6765 10.4372 2.72206 10.5662C2.83992 10.8999 3.10238 11.1624 3.43605 11.2802C3.56505 11.3258 3.73159 11.3432 4.25602 11.3851L4.28151 11.3871C4.45366 11.4008 4.57931 11.4108 4.70292 11.4352C4.98509 11.4909 5.2534 11.6021 5.49231 11.7622C5.59698 11.8324 5.6929 11.9141 5.82431 12.0262L5.84378 12.0428C6.2442 12.384 6.37431 12.4894 6.49774 12.5484C6.81702 12.701 7.18819 12.701 7.50747 12.5484C7.6309 12.4894 7.76101 12.384 8.16143 12.0428L8.18091 12.0262C8.31231 11.9141 8.40824 11.8324 8.5129 11.7622C8.75181 11.6021 9.02012 11.4909 9.30229 11.4352C9.4259 11.4108 9.55156 11.4008 9.7237 11.3871L9.74919 11.3851C10.2736 11.3432 10.4402 11.3258 10.5692 11.2802C10.9028 11.1624 11.1653 10.8999 11.2831 10.5662C11.3287 10.4372 11.3462 10.2707 11.388 9.74626L11.3901 9.72077C11.4038 9.54862 11.4138 9.42297 11.4382 9.29936C11.4939 9.01719 11.605 8.74888 11.7651 8.50997C11.8353 8.40531 11.9171 8.30938 12.0291 8.17798L12.0457 8.1585C12.3869 7.75809 12.4923 7.62797 12.5513 7.50454C12.7039 7.18526 12.7039 6.81409 12.5513 6.49481C12.4923 6.37138 12.3869 6.24127 12.0457 5.84085L12.0291 5.82137C11.9171 5.68996 11.8353 5.59404 11.7651 5.48938C11.605 5.25047 11.4939 4.98216 11.4382 4.69999C11.4138 4.57638 11.4038 4.45073 11.3901 4.27858L11.388 4.25309C11.3462 3.72866 11.3287 3.56212 11.2831 3.43312C11.1653 3.09945 10.9028 2.83699 10.5692 2.71913C10.4402 2.67357 10.2736 2.65611 9.74919 2.61426C9.74058 2.61357 9.73208 2.61289 9.72369 2.61223C9.55156 2.59852 9.4259 2.58852 9.30229 2.56411C9.02012 2.50841 8.75181 2.39727 8.5129 2.23714C8.40823 2.16699 8.31231 2.08521 8.1809 1.97318C8.1745 1.96772 8.16801 1.96219 8.16143 1.95659C7.76101 1.61535 7.6309 1.50994 7.50747 1.45094ZM9.69884 4.97243C9.89478 5.16837 9.89478 5.48605 9.69884 5.682L6.35391 9.02692C6.15797 9.22286 5.84029 9.22286 5.64434 9.02692L4.30637 7.68895C4.11043 7.49301 4.11043 7.17533 4.30637 6.97938C4.50232 6.78344 4.82 6.78344 5.01594 6.97938L5.99913 7.96257L8.98927 4.97243C9.18521 4.77649 9.50289 4.77649 9.69884 4.97243Z" fill="white"/>
</svg>
