<svg width="40" height="40" viewBox="0 0 40 40" fill="none" xmlns="http://www.w3.org/2000/svg">
<g clip-path="url(#clip0_6509_6499)">
<path fill-rule="evenodd" clip-rule="evenodd" d="M13.6244 12.4241C11.9654 13.1824 10.75 14.9861 10.75 17.137C10.75 19.3344 11.6492 21.0281 12.9383 22.4797C14.0007 23.676 15.2868 24.6675 16.5411 25.6345C16.839 25.8642 17.1351 26.0925 17.426 26.3218C17.9521 26.7365 18.4213 27.1004 18.8736 27.3647C19.3261 27.6292 19.6904 27.7499 20 27.7499C20.3096 27.7499 20.6739 27.6292 21.1264 27.3647C21.5787 27.1004 22.0479 26.7365 22.574 26.3218C22.8649 26.0925 23.161 25.8642 23.4589 25.6345C24.7132 24.6675 25.9993 23.676 27.0617 22.4797C28.3508 21.0281 29.25 19.3344 29.25 17.137C29.25 14.9861 28.0346 13.1824 26.3756 12.4241C24.7639 11.6874 22.5983 11.8825 20.5404 14.0206C20.399 14.1675 20.2039 14.2505 20 14.2505C19.7961 14.2505 19.601 14.1675 19.4596 14.0206C17.4017 11.8825 15.2361 11.6874 13.6244 12.4241ZM20 12.4587C17.6879 10.3902 15.099 10.1008 13.0008 11.0599C10.7847 12.0728 9.25 14.4249 9.25 17.137C9.25 19.8025 10.3605 21.836 11.8167 23.4757C12.9829 24.7888 14.4102 25.8879 15.6708 26.8585C15.9566 27.0785 16.2338 27.292 16.4974 27.4998C17.0097 27.9036 17.5595 28.3342 18.1168 28.6598C18.6739 28.9853 19.3096 29.2499 20 29.2499C20.6904 29.2499 21.3261 28.9853 21.8832 28.6598C22.4405 28.3342 22.9903 27.9036 23.5026 27.4998C23.7662 27.292 24.0434 27.0785 24.3292 26.8585C25.5898 25.8879 27.0171 24.7888 28.1833 23.4757C29.6395 21.836 30.75 19.8025 30.75 17.137C30.75 14.4249 29.2153 12.0728 26.9992 11.0599C24.901 10.1008 22.3121 10.3902 20 12.4587Z" fill="#4B4E4E" stroke="#4B4E4E" stroke-width="0.3"/>
</g>
<defs>
<clipPath id="clip0_6509_6499">
<rect width="40" height="40" rx="20" fill="white"/>
</clipPath>
</defs>
</svg>
