<svg width="24" height="24" viewBox="0 0 24 24" fill="none" xmlns="http://www.w3.org/2000/svg">
<g clip-path="url(#clip0_6526_6751)">
<path d="M12 1.1C9.29381 1.1 7.1 3.2938 7.1 6C7.1 8.7062 9.29381 10.9 12 10.9C14.7062 10.9 16.9 8.7062 16.9 6C16.9 3.2938 14.7062 1.1 12 1.1ZM8.9 6C8.9 4.28792 10.2879 2.9 12 2.9C13.7121 2.9 15.1 4.28792 15.1 6C15.1 7.71208 13.7121 9.1 12 9.1C10.2879 9.1 8.9 7.71208 8.9 6ZM18 3.1C17.5029 3.1 17.1 3.50294 17.1 4C17.1 4.49706 17.5029 4.9 18 4.9C19.3174 4.9 20.1 5.76047 20.1 6.5C20.1 7.23953 19.3174 8.1 18 8.1C17.5029 8.1 17.1 8.50294 17.1 9C17.1 9.49706 17.5029 9.9 18 9.9C19.9916 9.9 21.9 8.52588 21.9 6.5C21.9 4.47412 19.9916 3.1 18 3.1ZM6.9 4C6.9 3.50294 6.49706 3.1 6 3.1C4.00844 3.1 2.1 4.47412 2.1 6.5C2.1 8.52588 4.00844 9.9 6 9.9C6.49706 9.9 6.9 9.49706 6.9 9C6.9 8.50294 6.49706 8.1 6 8.1C4.68262 8.1 3.9 7.23953 3.9 6.5C3.9 5.76047 4.68262 4.9 6 4.9C6.49706 4.9 6.9 4.49706 6.9 4ZM12 12.1C10.1903 12.1 8.51112 12.5874 7.25813 13.4227C6.01168 14.2537 5.1 15.5007 5.1 17C5.1 18.4993 6.01168 19.7463 7.25813 20.5773C8.51112 21.4126 10.1903 21.9 12 21.9C13.8097 21.9 15.4889 21.4126 16.7419 20.5773C17.9883 19.7463 18.9 18.4993 18.9 17C18.9 15.5007 17.9883 14.2537 16.7419 13.4227C15.4889 12.5874 13.8097 12.1 12 12.1ZM6.9 17C6.9 16.2896 7.33208 15.5368 8.25659 14.9204C9.17519 14.308 10.4961 13.9 12 13.9C13.5039 13.9 14.8248 14.308 15.7434 14.9204C16.6679 15.5368 17.1 16.2896 17.1 17C17.1 17.7104 16.6679 18.4632 15.7434 19.0796C14.8248 19.692 13.5039 20.1 12 20.1C10.4961 20.1 9.17519 19.692 8.25659 19.0796C7.33208 18.4632 6.9 17.7104 6.9 17ZM20.1928 13.1209C19.7073 13.0144 19.2274 13.3217 19.1209 13.8072C19.0144 14.2927 19.3217 14.7726 19.8072 14.8791C20.5826 15.0492 21.1925 15.3394 21.5879 15.6629C21.9834 15.9865 22.1 16.282 22.1 16.5C22.1 16.718 21.9834 17.0135 21.5879 17.3371C21.1925 17.6606 20.5826 17.9508 19.8072 18.1209C19.3217 18.2274 19.0144 18.7073 19.1209 19.1928C19.2274 19.6783 19.7073 19.9856 20.1928 19.8791C21.1716 19.6645 22.0617 19.2752 22.7278 18.7302C23.393 18.1859 23.9 17.4238 23.9 16.5C23.9 15.5762 23.393 14.8141 22.7278 14.2698C22.0617 13.7248 21.1716 13.3355 20.1928 13.1209ZM4.87911 13.8072C4.77264 13.3217 4.29274 13.0144 3.80722 13.1209C2.82839 13.3355 1.93827 13.7248 1.2722 14.2698C0.607045 14.8141 0.1 15.5762 0.1 16.5C0.1 17.4238 0.607045 18.1859 1.2722 18.7302C1.93827 19.2752 2.82839 19.6645 3.80722 19.8791C4.29274 19.9856 4.77264 19.6783 4.87911 19.1928C4.98558 18.7073 4.6783 18.2274 4.19278 18.1209C3.41739 17.9508 2.8075 17.6606 2.41211 17.3371C2.01658 17.0135 1.9 16.718 1.9 16.5C1.9 16.282 2.01658 15.9865 2.41211 15.6629C2.8075 15.3394 3.41739 15.0492 4.19278 14.8791C4.6783 14.7726 4.98558 14.2927 4.87911 13.8072Z" fill="#347B72" stroke="#347B72" stroke-width="0.3"/>
</g>
<defs>
<clipPath id="clip0_6526_6751">
<rect width="24" height="24" fill="white"/>
</clipPath>
</defs>
</svg>
