<svg width="24" height="24" viewBox="0 0 24 24" fill="none" xmlns="http://www.w3.org/2000/svg">
<g clip-path="url(#clip0_6509_12262)">
<path d="M18.2651 20.9571C17.742 21.0299 17.1315 21.0656 16.4 21.0831V14.25C16.4 13.7529 15.9971 13.35 15.5 13.35C15.0029 13.35 14.6 13.7529 14.6 14.25V21.0998C14.4065 21.1 14.2066 21.1 14 21.1H10C9.79343 21.1 9.59353 21.1 9.4 21.0998V14.25C9.4 13.7529 8.99706 13.35 8.5 13.35C8.00294 13.35 7.6 13.7529 7.6 14.25V21.0831C6.86851 21.0656 6.25803 21.0299 5.73488 20.9571C4.75118 20.8203 4.21073 20.5682 3.81863 20.1626L3.71079 20.2669L3.81863 20.1626C3.42243 19.7528 3.17311 19.1812 3.03894 18.1489C2.90179 17.0938 2.9 15.7001 2.9 13.725V12.2039C2.9 11.043 2.90092 10.234 2.96095 9.59507C3.01928 8.97434 3.1287 8.58367 3.30867 8.25487C3.48782 7.92757 3.75244 7.63314 4.23212 7.26579C4.72809 6.88596 5.39529 6.4707 6.35863 5.87282L8.35863 4.63157C9.37705 3.9995 10.0837 3.56226 10.6721 3.27609C11.2422 2.99888 11.631 2.9 12 2.9C12.369 2.9 12.7578 2.99888 13.3279 3.27609C13.9163 3.56226 14.6229 3.9995 15.6414 4.63157L17.6414 5.87282C18.6047 6.4707 19.2719 6.88596 19.7679 7.26579C20.2476 7.63314 20.5122 7.92757 20.6913 8.25487C20.8713 8.58367 20.9807 8.97434 21.039 9.59507C21.0991 10.234 21.1 11.043 21.1 12.2039V13.725C21.1 15.7001 21.0982 17.0938 20.9611 18.1489C20.8269 19.1812 20.5776 19.7528 20.1814 20.1626C19.7893 20.5682 19.2488 20.8203 18.2651 20.9571ZM12 1.1C11.2611 1.1 10.5946 1.31227 9.88496 1.65734C9.2033 1.98883 8.41849 2.47591 7.45042 3.07674L7.44376 3.08087L5.37719 4.36345L5.37091 4.36734C4.45487 4.93585 3.71209 5.39683 3.1377 5.83672C2.53903 6.2952 2.06978 6.76938 1.72973 7.39061C1.39051 8.01034 1.24032 8.66605 1.16885 9.42667C1.09999 10.1595 1.09999 11.0529 1.1 12.1601L1.1 12.1672V13.7799L1.1 13.7906C1.09999 15.6856 1.09997 17.1963 1.25395 18.3809C1.41266 19.602 1.7491 20.6116 2.52451 21.4137C3.30405 22.22 4.29227 22.5738 5.48694 22.7399C6.63812 22.9 8.10363 22.9 9.93054 22.9H9.94185H14.0581H14.0694C15.8963 22.9 17.3619 22.9 18.5131 22.7399C19.7077 22.5738 20.6959 22.22 21.4755 21.4137C22.2509 20.6116 22.5873 19.602 22.746 18.3809C22.9 17.1963 22.9 15.6856 22.9 13.7906V13.7799V12.1672V12.1601C22.9 11.0529 22.9 10.1595 22.8312 9.42667C22.7597 8.66605 22.6095 8.01034 22.2703 7.39061C21.9302 6.76938 21.461 6.2952 20.8623 5.83672C20.2879 5.39682 19.5451 4.93583 18.629 4.3673L18.6228 4.36346L16.5562 3.08087L16.5496 3.07675C15.5815 2.47592 14.7967 1.98883 14.115 1.65734C13.4054 1.31227 12.7389 1.1 12 1.1Z" fill="#347B72" stroke="#347B72" stroke-width="0.3"/>
<path d="M9.53598 14.6732C9.13666 14.9692 8.57301 14.8854 8.27702 14.4861C7.98103 14.0868 8.06479 13.5231 8.46411 13.2271C9.46092 12.4882 10.6812 12.0501 12 12.0501C13.3189 12.0501 14.5392 12.4882 15.536 13.2271C15.9353 13.5231 16.0191 14.0868 15.7231 14.4861L15.6026 14.3968L15.7231 14.4861C15.4271 14.8854 14.8634 14.9692 14.4641 14.6732C13.7602 14.1514 12.9121 13.8501 12 13.8501C11.088 13.8501 10.2399 14.1514 9.53598 14.6732Z" fill="#347B72" stroke="#347B72" stroke-width="0.3" stroke-linecap="round"/>
</g>
<defs>
<clipPath id="clip0_6509_12262">
<rect width="24" height="24" fill="white"/>
</clipPath>
</defs>
</svg>
