<svg width="24" height="24" viewBox="0 0 24 24" fill="none" xmlns="http://www.w3.org/2000/svg">
<g clip-path="url(#clip0_6526_5517)">
<path d="M10.8971 12.2532L10.8883 12.3049L10.8769 12.3717C10.8734 12.3708 10.87 12.3698 10.8665 12.3686L10.8694 12.3212C10.8741 12.3071 10.8786 12.295 10.8829 12.2845C10.8881 12.2716 10.8929 12.2613 10.8971 12.2532ZM10.8971 12.2532L10.8982 12.2538M10.8971 12.2532C10.8975 12.2533 10.8978 12.2534 10.8982 12.2534L10.8982 12.2538M10.8982 12.2538L10.9105 12.3766C10.9241 12.377 10.9358 12.3754 10.9448 12.3736C10.9536 12.3674 10.9632 12.3591 10.9723 12.3484C10.9769 12.343 10.982 12.3363 10.9868 12.3281L10.9206 12.2654M10.8982 12.2538L10.9206 12.2654M10.9206 12.2654L10.9519 12.2817L10.9978 12.3055C10.9986 12.3035 10.9994 12.3014 11.0001 12.2993L10.9584 12.268C10.95 12.2656 10.9422 12.2634 10.935 12.2615C10.9259 12.2592 10.9177 12.2573 10.9104 12.2558L10.9206 12.2654ZM10.8982 16.7462L10.9105 16.6234C10.9241 16.623 10.9358 16.6246 10.9448 16.6264C10.9538 16.6328 10.9637 16.6413 10.973 16.6524C10.9774 16.6576 10.9822 16.6641 10.9868 16.6719L10.9206 16.7346M10.8982 16.7462L10.8971 16.7468M10.8982 16.7462L10.8982 16.7466C10.8978 16.7466 10.8975 16.7467 10.8971 16.7468M10.8982 16.7462L10.9206 16.7346M10.8971 16.7468L10.8883 16.6951L10.8769 16.6283C10.8734 16.6292 10.87 16.6302 10.8665 16.6314L10.8694 16.6788C10.8741 16.6929 10.8786 16.705 10.8829 16.7155C10.8881 16.7284 10.8929 16.7387 10.8971 16.7468ZM10.9206 16.7346L10.9104 16.7442C10.9177 16.7427 10.9259 16.7408 10.935 16.7385C10.9422 16.7366 10.95 16.7344 10.9584 16.732L11.0001 16.7007C10.9993 16.6986 10.9986 16.6965 10.9978 16.6945L10.9519 16.7183L10.9206 16.7346ZM11.0763 16.5267C11.0442 16.541 11.0162 16.5525 10.992 16.5618C10.9799 16.5124 10.9667 16.4449 10.9547 16.3543C10.9019 15.9587 10.9 15.3869 10.9 14.5C10.9 13.6131 10.9019 13.0413 10.9547 12.6457C10.9667 12.5551 10.9799 12.4876 10.992 12.4382C11.0162 12.4475 11.0442 12.459 11.0763 12.4733C11.3946 12.6146 11.8273 12.8907 12.526 13.3415C13.2139 13.7853 13.6398 14.0631 13.9073 14.2996C14.0261 14.4047 14.0751 14.4687 14.0941 14.4998C14.0753 14.531 14.0263 14.5951 13.9073 14.7004C13.6398 14.9369 13.2139 15.2147 12.526 15.6585C11.8273 16.1093 11.3946 16.3854 11.0763 16.5267ZM10.9137 16.7725C10.9129 16.7717 10.9117 16.7703 10.9101 16.7682C10.9135 16.7711 10.915 16.7731 10.9149 16.7733C10.9149 16.7734 10.9147 16.7734 10.9144 16.7732C10.9143 16.773 10.914 16.7728 10.9137 16.7725ZM10.8579 16.7483C10.8585 16.7475 10.8644 16.7472 10.8737 16.7496C10.8657 16.7501 10.861 16.7497 10.859 16.7491C10.8581 16.7489 10.8577 16.7486 10.8579 16.7483ZM12.0574 1.1H11.9426L11.9314 1.1C9.63234 1.09999 7.81516 1.09998 6.39372 1.29108C4.93239 1.48755 3.75541 1.90073 2.82807 2.82807C1.90073 3.75541 1.48755 4.93239 1.29108 6.39372C1.09998 7.81516 1.09999 9.63234 1.1 11.9314L1.1 11.9426V12.0574L1.1 12.0686C1.09999 14.3677 1.09998 16.1848 1.29108 17.6063C1.48755 19.0676 1.90073 20.2446 2.82807 21.1719C3.75541 22.0993 4.93239 22.5124 6.39372 22.7089C7.81517 22.9 9.63236 22.9 11.9314 22.9H11.9426H12.0574H12.0686C14.3676 22.9 16.1848 22.9 17.6063 22.7089C19.0676 22.5124 20.2446 22.0993 21.1719 21.1719C22.0993 20.2446 22.5124 19.0676 22.7089 17.6063C22.9 16.1848 22.9 14.3676 22.9 12.0686V12.0574V11.9426V11.9314C22.9 9.63236 22.9 7.81517 22.7089 6.39372C22.5124 4.93239 22.0993 3.75541 21.1719 2.82807C20.2446 1.90073 19.0676 1.48755 17.6063 1.29108C16.1848 1.09998 14.3677 1.09999 12.0686 1.1L12.0574 1.1ZM4.10086 4.10086C4.63803 3.5637 5.37185 3.24467 6.63356 3.07503C7.33849 2.98026 8.16789 2.93666 9.16803 2.91672L6.50595 7.1H3.02131C3.0371 6.93851 3.05492 6.78318 3.07503 6.63356C3.24467 5.37185 3.5637 4.63803 4.10086 4.10086ZM11.2593 2.98319C11.2765 2.9561 11.2922 2.9284 11.3062 2.90022C11.5309 2.90002 11.7621 2.9 12 2.9C13.4497 2.9 14.6463 2.90062 15.653 2.94042L13.0059 7.1H8.63951L11.2593 2.98319ZM20.9787 7.1H15.1395L17.6718 3.12071C18.7492 3.29946 19.4067 3.60844 19.8991 4.10086C20.4363 4.63803 20.7553 5.37185 20.925 6.63356C20.9451 6.78318 20.9629 6.93851 20.9787 7.1ZM13.4862 8.9C13.4949 8.90013 13.5036 8.90013 13.5124 8.9H21.0772C21.0996 9.78589 21.1 10.8075 21.1 12C21.1 14.3825 21.0981 16.0788 20.925 17.3664C20.7553 18.6282 20.4363 19.362 19.8991 19.8991C19.362 20.4363 18.6282 20.7553 17.3664 20.925C16.0788 21.0981 14.3825 21.1 12 21.1C9.61749 21.1 7.92121 21.0981 6.63356 20.925C5.37185 20.7553 4.63803 20.4363 4.10086 19.8991C3.5637 19.362 3.24467 18.6282 3.07503 17.3664C2.90191 16.0788 2.9 14.3825 2.9 12C2.9 10.8075 2.90041 9.78589 2.92275 8.9H6.98624C6.99495 8.90013 7.00365 8.90013 7.01235 8.9H13.4862ZM13.5512 11.8608L13.5512 11.8608L13.4496 11.7952L13.4496 11.7952L13.4397 11.7888C12.8215 11.3898 12.2695 11.0336 11.8068 10.8282C11.3228 10.6133 10.6579 10.4379 10.0178 10.8445C9.41409 11.2281 9.24104 11.8781 9.17044 12.4079C9.09993 12.937 9.09996 13.6307 9.1 14.4346V14.4451V14.5549V14.5654C9.09996 15.3693 9.09993 16.063 9.17044 16.5921C9.24104 17.1219 9.41409 17.7719 10.0178 18.1555C10.6579 18.5621 11.3228 18.3867 11.8068 18.1718C12.2695 17.9664 12.8215 17.6101 13.4397 17.2112L13.4496 17.2048L13.4496 17.2048L13.5512 17.1392L13.5512 17.1392L13.5604 17.1333C14.1728 16.7382 14.7172 16.3871 15.0997 16.0487C15.5107 15.6852 15.9 15.1946 15.9 14.5C15.9 13.8054 15.5107 13.3148 15.0997 12.9513C14.7172 12.6129 14.1728 12.2618 13.5605 11.8667L13.5512 11.8608Z" fill="#347B72" stroke="#347B72" stroke-width="0.3" stroke-linecap="round"/>
</g>
<defs>
<clipPath id="clip0_6526_5517">
<rect width="24" height="24" fill="white"/>
</clipPath>
</defs>
</svg>
